STARTFONT 2.1
FONT -FontForge-Jellee Bold-Bold-R-Normal--21-200-75-75-P-120-ISO10646-1
SIZE 20 75 75
FONTBOUNDINGBOX 33 27 -9 -5
COMMENT "Generated by fontforge, http://fontforge.sourceforge.net"
COMMENT "Copyright (c) 2020 by Alfredo Marco Pradil. All rights reserved."
STARTPROPERTIES 39
FOUNDRY "FontForge"
FAMILY_NAME "Jellee Bold"
WEIGHT_NAME "Bold"
SLANT "R"
SETWIDTH_NAME "Normal"
ADD_STYLE_NAME ""
PIXEL_SIZE 21
POINT_SIZE 200
RESOLUTION_X 75
RESOLUTION_Y 75
SPACING "P"
AVERAGE_WIDTH 120
CHARSET_REGISTRY "ISO10646"
CHARSET_ENCODING "1"
FONTNAME_REGISTRY ""
CHARSET_COLLECTIONS "ISO10646-1"
FONT_NAME "Jellee-Bold"
FACE_NAME "Jellee Bold"
COPYRIGHT "Copyright (c) 2020 by Alfredo Marco Pradil. All rights reserved."
FONT_VERSION "1.223"
FONT_ASCENT 16
FONT_DESCENT 5
UNDERLINE_POSITION -1
UNDERLINE_THICKNESS 1
X_HEIGHT 11
CAP_HEIGHT 15
RAW_ASCENT 777
RAW_DESCENT 222
NORM_SPACE 5
RELATIVE_WEIGHT 70
RELATIVE_SETWIDTH 50
SUPERSCRIPT_X 0
SUPERSCRIPT_Y 7
SUPERSCRIPT_SIZE 12
SUBSCRIPT_X 0
SUBSCRIPT_Y 1
SUBSCRIPT_SIZE 12
AVG_LOWERCASE_WIDTH 124
AVG_UPPERCASE_WIDTH 148
ENDPROPERTIES
CHARS 208
STARTCHAR space
ENCODING 32
SWIDTH 250 0
DWIDTH 5 0
BBX 1 1 0 0
BITMAP
00
ENDCHAR
STARTCHAR exclam
ENCODING 33
SWIDTH 290 0
DWIDTH 6 0
BBX 4 16 1 0
BITMAP
60
F0
F0
F0
F0
F0
F0
F0
70
60
60
00
70
F0
F0
70
ENDCHAR
STARTCHAR quotedbl
ENCODING 34
SWIDTH 474 0
DWIDTH 10 0
BBX 8 8 1 8
BITMAP
E7
E7
E7
E7
E7
E7
C3
42
ENDCHAR
STARTCHAR numbersign
ENCODING 35
SWIDTH 645 0
DWIDTH 14 0
BBX 12 15 1 0
BITMAP
08C0
1CC0
18C0
18C0
FFF0
7FF0
1980
3980
3180
FFE0
FFE0
3380
3300
7300
2300
ENDCHAR
STARTCHAR dollar
ENCODING 36
SWIDTH 682 0
DWIDTH 14 0
BBX 13 22 1 -3
BITMAP
0600
0600
0600
1F80
7FE0
FFE0
F6E0
F660
F600
FE00
7FE0
3FF0
07F0
06F8
6678
F6F0
FFF0
7FE0
3FC0
0600
0600
0600
ENDCHAR
STARTCHAR percent
ENCODING 37
SWIDTH 804 0
DWIDTH 17 0
BBX 15 16 1 0
BITMAP
7818
FC18
CE30
CE70
CC60
FCC0
79C0
0380
033C
077E
0EE6
0CE6
1CE6
38EE
307E
203C
ENDCHAR
STARTCHAR ampersand
ENCODING 38
SWIDTH 737 0
DWIDTH 16 0
BBX 14 16 1 0
BITMAP
1F80
3FC0
7FE0
79E0
79E0
7BC0
3F80
3F18
7FB8
F7F8
E3F8
E1F8
F0F8
FFFC
7FFC
1F98
ENDCHAR
STARTCHAR quotesingle
ENCODING 39
SWIDTH 228 0
DWIDTH 5 0
BBX 3 8 1 8
BITMAP
E0
E0
E0
E0
E0
E0
C0
40
ENDCHAR
STARTCHAR parenleft
ENCODING 40
SWIDTH 319 0
DWIDTH 7 0
BBX 5 21 1 -4
BITMAP
18
18
38
70
70
70
E0
E0
E0
E0
E0
E0
E0
E0
E0
70
70
70
38
18
18
ENDCHAR
STARTCHAR parenright
ENCODING 41
SWIDTH 319 0
DWIDTH 7 0
BBX 5 21 1 -4
BITMAP
80
C0
E0
60
70
70
70
38
38
38
38
38
38
38
70
70
70
60
E0
C0
80
ENDCHAR
STARTCHAR asterisk
ENCODING 42
SWIDTH 478 0
DWIDTH 10 0
BBX 8 9 1 7
BITMAP
18
18
99
FF
FF
3C
7E
E7
66
ENDCHAR
STARTCHAR plus
ENCODING 43
SWIDTH 533 0
DWIDTH 11 0
BBX 11 11 0 1
BITMAP
0600
0E00
0E00
0E00
7FC0
FFE0
7FC0
0E00
0E00
0E00
0E00
ENDCHAR
STARTCHAR comma
ENCODING 44
SWIDTH 250 0
DWIDTH 5 0
BBX 5 8 0 -4
BITMAP
70
F8
78
78
30
30
60
E0
ENDCHAR
STARTCHAR hyphen
ENCODING 45
SWIDTH 432 0
DWIDTH 9 0
BBX 7 3 1 5
BITMAP
FE
FE
FE
ENDCHAR
STARTCHAR period
ENCODING 46
SWIDTH 250 0
DWIDTH 5 0
BBX 5 4 0 0
BITMAP
70
78
F8
70
ENDCHAR
STARTCHAR slash
ENCODING 47
SWIDTH 419 0
DWIDTH 9 0
BBX 10 21 -1 -4
BITMAP
0180
01C0
0180
0380
0300
0300
0700
0600
0E00
0E00
0C00
1C00
1C00
1800
3800
3800
3000
7000
6000
E000
6000
ENDCHAR
STARTCHAR zero
ENCODING 48
SWIDTH 713 0
DWIDTH 15 0
BBX 13 16 1 0
BITMAP
0F80
3FE0
7FF0
78F0
F078
F078
F078
F078
F078
F078
F078
F078
78F0
7FF0
3FE0
0F80
ENDCHAR
STARTCHAR one
ENCODING 49
SWIDTH 437 0
DWIDTH 9 0
BBX 8 16 0 0
BITMAP
06
1F
3F
7F
FF
6F
0F
0F
0F
0F
0F
0F
0F
0F
0F
06
ENDCHAR
STARTCHAR two
ENCODING 50
SWIDTH 640 0
DWIDTH 13 0
BBX 12 16 1 0
BITMAP
1F80
3FC0
7FE0
F1E0
F0E0
E1E0
01E0
03E0
07C0
0F80
1F00
3E00
7C00
FFE0
FFF0
FFE0
ENDCHAR
STARTCHAR three
ENCODING 51
SWIDTH 645 0
DWIDTH 14 0
BBX 12 16 1 0
BITMAP
1F80
7FC0
FFE0
F1E0
61E0
01E0
0FC0
0FC0
0FE0
01E0
40F0
E0F0
F1E0
FFE0
7FC0
1F00
ENDCHAR
STARTCHAR four
ENCODING 52
SWIDTH 676 0
DWIDTH 14 0
BBX 14 16 0 0
BITMAP
01C0
03E0
07F0
07F0
0EF0
0EF0
1CF0
1CF0
38F0
78F0
7FF8
FFFC
7FF8
00F0
00F0
00E0
ENDCHAR
STARTCHAR five
ENCODING 53
SWIDTH 629 0
DWIDTH 13 0
BBX 11 16 1 0
BITMAP
3FC0
7FE0
7FC0
7000
7000
FF00
FFC0
FFE0
71E0
01E0
00E0
E1E0
F1E0
FFE0
7FC0
3F00
ENDCHAR
STARTCHAR six
ENCODING 54
SWIDTH 682 0
DWIDTH 14 0
BBX 12 16 1 0
BITMAP
0F80
3FE0
3FF0
78E0
7000
F780
FFE0
FFF0
F8F0
F070
F070
F070
78F0
7FF0
3FE0
0F80
ENDCHAR
STARTCHAR seven
ENCODING 55
SWIDTH 584 0
DWIDTH 12 0
BBX 12 16 0 0
BITMAP
7FE0
FFF0
7FF0
01E0
01E0
03C0
03C0
0780
0780
0F00
0F00
1F00
1E00
1E00
3C00
1C00
ENDCHAR
STARTCHAR eight
ENCODING 56
SWIDTH 680 0
DWIDTH 14 0
BBX 12 16 1 0
BITMAP
1F80
3FE0
7FF0
F0F0
F0F0
78F0
7FE0
1FC0
7FE0
F0F0
F0F0
F0F0
F0F0
FFF0
7FE0
1F80
ENDCHAR
STARTCHAR nine
ENCODING 57
SWIDTH 682 0
DWIDTH 14 0
BBX 12 16 1 0
BITMAP
1F80
3FC0
7FE0
F0F0
F0F0
F0F0
F0F0
FFF0
7FF0
3EF0
00F0
20F0
71E0
7FE0
3FC0
1F00
ENDCHAR
STARTCHAR colon
ENCODING 58
SWIDTH 270 0
DWIDTH 6 0
BBX 4 12 1 0
BITMAP
E0
F0
F0
E0
00
00
00
00
E0
F0
F0
E0
ENDCHAR
STARTCHAR semicolon
ENCODING 59
SWIDTH 270 0
DWIDTH 6 0
BBX 4 16 1 -4
BITMAP
E0
F0
F0
E0
00
00
00
00
E0
F0
F0
F0
70
60
E0
C0
ENDCHAR
STARTCHAR less
ENCODING 60
SWIDTH 543 0
DWIDTH 11 0
BBX 10 10 1 2
BITMAP
0180
07C0
1F80
FE00
F000
F000
FE00
1F80
07C0
0180
ENDCHAR
STARTCHAR equal
ENCODING 61
SWIDTH 544 0
DWIDTH 11 0
BBX 10 7 1 3
BITMAP
FFC0
FFC0
FF80
0000
FF80
FFC0
FFC0
ENDCHAR
STARTCHAR greater
ENCODING 62
SWIDTH 543 0
DWIDTH 11 0
BBX 10 10 1 2
BITMAP
C000
F800
FE00
1F80
07C0
07C0
1F80
FE00
F800
C000
ENDCHAR
STARTCHAR question
ENCODING 63
SWIDTH 583 0
DWIDTH 12 0
BBX 12 16 0 0
BITMAP
1F80
7FE0
7FE0
F0F0
70F0
01F0
03E0
07C0
0F80
0F00
0E00
0000
0E00
0F00
0F00
0E00
ENDCHAR
STARTCHAR at
ENCODING 64
SWIDTH 1033 0
DWIDTH 22 0
BBX 20 20 1 -4
BITMAP
01FC00
07FF00
1E0380
3800C0
31EE60
63FE60
E7FE30
C79E30
C71E30
CF1E30
CF1C30
CF3C60
C7FC60
C7FFC0
63CF80
600000
300000
1C0380
0FFE00
03F800
ENDCHAR
STARTCHAR A
ENCODING 65
SWIDTH 715 0
DWIDTH 15 0
BBX 15 16 0 0
BITMAP
0380
07C0
0FE0
0FE0
1EF0
1EF0
1EF0
3C78
3C78
3FF8
7FFC
7FFC
781C
F01E
F01E
600C
ENDCHAR
STARTCHAR B
ENCODING 66
SWIDTH 702 0
DWIDTH 15 0
BBX 13 16 1 0
BITMAP
7FC0
FFF0
FFF0
F078
F078
F070
FFE0
FFC0
FFF0
F078
F078
F078
F078
FFF8
FFF0
7FC0
ENDCHAR
STARTCHAR C
ENCODING 67
SWIDTH 729 0
DWIDTH 15 0
BBX 14 16 1 0
BITMAP
0FE0
1FF0
7FF8
787C
F838
F000
F000
F000
F000
F000
F010
F83C
787C
7FF8
3FF0
0FE0
ENDCHAR
STARTCHAR D
ENCODING 68
SWIDTH 748 0
DWIDTH 16 0
BBX 14 16 1 0
BITMAP
7F80
FFE0
FFF0
F0F8
F07C
F03C
F03C
F03C
F03C
F03C
F03C
F07C
F0F8
FFF0
FFE0
7F80
ENDCHAR
STARTCHAR E
ENCODING 69
SWIDTH 624 0
DWIDTH 13 0
BBX 12 16 1 0
BITMAP
7FE0
FFE0
FFE0
F000
F000
F000
FFC0
FFC0
FFC0
F000
F000
F000
F000
FFE0
FFF0
7FE0
ENDCHAR
STARTCHAR F
ENCODING 70
SWIDTH 574 0
DWIDTH 12 0
BBX 11 16 1 0
BITMAP
7FC0
FFE0
FFC0
F000
F000
F000
F000
FF80
FFC0
FF80
F000
F000
F000
F000
F000
6000
ENDCHAR
STARTCHAR G
ENCODING 71
SWIDTH 767 0
DWIDTH 16 0
BBX 14 16 1 0
BITMAP
0FE0
1FF0
3FF8
7878
F838
F000
F000
F1FC
F1FC
F0FC
F01C
F83C
783C
7FFC
3FFC
0F9C
ENDCHAR
STARTCHAR H
ENCODING 72
SWIDTH 767 0
DWIDTH 16 0
BBX 14 16 1 0
BITMAP
6018
F03C
F03C
F03C
F03C
F03C
FFFC
FFFC
FFFC
F03C
F03C
F03C
F03C
F03C
F03C
6018
ENDCHAR
STARTCHAR I
ENCODING 73
SWIDTH 298 0
DWIDTH 6 0
BBX 4 16 1 0
BITMAP
60
F0
F0
F0
F0
F0
F0
F0
F0
F0
F0
F0
F0
F0
F0
60
ENDCHAR
STARTCHAR J
ENCODING 74
SWIDTH 579 0
DWIDTH 12 0
BBX 11 16 0 0
BITMAP
00C0
01E0
01E0
01E0
01E0
01E0
01E0
01E0
01E0
01E0
01E0
61E0
F1E0
FFE0
7FC0
3F00
ENDCHAR
STARTCHAR K
ENCODING 75
SWIDTH 681 0
DWIDTH 14 0
BBX 13 16 1 0
BITMAP
6070
F0F0
F0F0
F1E0
F3C0
F7C0
F780
FF80
FFC0
FFC0
FBE0
F1F0
F0F0
F0F8
F078
6030
ENDCHAR
STARTCHAR L
ENCODING 76
SWIDTH 588 0
DWIDTH 12 0
BBX 11 16 1 0
BITMAP
6000
F000
F000
F000
F000
F000
F000
F000
F000
F000
F000
F000
F000
FFE0
FFE0
7FE0
ENDCHAR
STARTCHAR M
ENCODING 77
SWIDTH 954 0
DWIDTH 20 0
BBX 18 16 1 0
BITMAP
780780
FC0FC0
FC0FC0
FC0FC0
FE1FC0
FE1FC0
FE1FC0
F73BC0
F73BC0
F7FBC0
F3F3C0
F3F3C0
F3F3C0
F1E3C0
F1E3C0
60C180
ENDCHAR
STARTCHAR N
ENCODING 78
SWIDTH 768 0
DWIDTH 16 0
BBX 14 16 1 0
BITMAP
7018
F83C
FC3C
FC3C
FE3C
FF3C
FF3C
F7BC
F7BC
F3FC
F1FC
F1FC
F0FC
F0FC
F07C
6038
ENDCHAR
STARTCHAR O
ENCODING 79
SWIDTH 797 0
DWIDTH 17 0
BBX 15 16 1 0
BITMAP
0FE0
3FF0
7FF8
787C
F83E
F01E
F01E
F01E
F01E
F01E
F01E
F83E
787C
7FF8
3FF0
0FC0
ENDCHAR
STARTCHAR P
ENCODING 80
SWIDTH 672 0
DWIDTH 14 0
BBX 13 16 1 0
BITMAP
7F80
FFE0
FFF0
F0F0
F078
F078
F078
F0F0
FFF0
FFE0
FF80
F000
F000
F000
F000
6000
ENDCHAR
STARTCHAR Q
ENCODING 81
SWIDTH 797 0
DWIDTH 17 0
BBX 15 17 1 -1
BITMAP
0FE0
3FF0
7FF8
787C
F83E
F01E
F01E
F01E
F01E
F01E
F09E
F9FE
79FC
7FF8
3FF8
0FF8
0018
ENDCHAR
STARTCHAR R
ENCODING 82
SWIDTH 689 0
DWIDTH 14 0
BBX 13 16 1 0
BITMAP
7FC0
FFF0
FFF0
F0F8
F078
F078
F0F8
FFF0
FFE0
FFC0
F3E0
F1E0
F1F0
F0F0
F0F0
6070
ENDCHAR
STARTCHAR S
ENCODING 83
SWIDTH 680 0
DWIDTH 14 0
BBX 13 16 1 0
BITMAP
1F80
7FE0
FFF0
F0E0
F060
F800
FF80
7FE0
3FF0
07F8
00F8
E078
F0F8
FFF0
7FE0
1F80
ENDCHAR
STARTCHAR T
ENCODING 84
SWIDTH 633 0
DWIDTH 13 0
BBX 13 16 0 0
BITMAP
FFF8
FFF8
7FF8
0780
0780
0780
0780
0780
0780
0780
0780
0780
0780
0780
0780
0700
ENDCHAR
STARTCHAR U
ENCODING 85
SWIDTH 721 0
DWIDTH 15 0
BBX 13 16 1 0
BITMAP
6030
F078
F078
F078
F078
F078
F078
F078
F078
F078
F078
F078
F8F8
7FF0
3FE0
1FC0
ENDCHAR
STARTCHAR V
ENCODING 86
SWIDTH 672 0
DWIDTH 14 0
BBX 14 16 0 0
BITMAP
6018
F03C
F03C
7038
7878
7878
3870
3CF0
3CF0
1CE0
1EE0
1FE0
0FC0
0FC0
0FC0
0780
ENDCHAR
STARTCHAR W
ENCODING 87
SWIDTH 1040 0
DWIDTH 22 0
BBX 21 16 0 0
BITMAP
607038
F07838
F0F838
70FC78
78FC78
78FC78
79FC70
39FE70
39CEF0
3DCEF0
3FCFF0
1FCFE0
1F87E0
1F87E0
1F87C0
0F03C0
ENDCHAR
STARTCHAR X
ENCODING 88
SWIDTH 603 0
DWIDTH 13 0
BBX 12 16 0 0
BITMAP
7070
7070
78F0
7DE0
3DE0
1FC0
1F80
0F80
0F80
1F80
1FC0
3DE0
79E0
78F0
F0F0
7070
ENDCHAR
STARTCHAR Y
ENCODING 89
SWIDTH 591 0
DWIDTH 12 0
BBX 12 16 0 0
BITMAP
6070
F070
F0F0
78F0
79E0
3DC0
1FC0
1F80
0F80
0F00
0F00
0F00
0F00
0F00
0F00
0700
ENDCHAR
STARTCHAR Z
ENCODING 90
SWIDTH 660 0
DWIDTH 14 0
BBX 13 16 0 0
BITMAP
7FF8
7FF8
7FF8
00F0
01F0
03E0
07C0
07C0
0F80
1F00
1E00
3E00
7C00
7FF8
FFF8
7FF8
ENDCHAR
STARTCHAR bracketleft
ENCODING 91
SWIDTH 320 0
DWIDTH 7 0
BBX 6 21 1 -3
BITMAP
FC
FC
E0
E0
E0
E0
E0
E0
E0
E0
E0
E0
E0
E0
E0
E0
E0
E0
E0
FC
FC
ENDCHAR
STARTCHAR backslash
ENCODING 92
SWIDTH 419 0
DWIDTH 9 0
BBX 9 21 0 -4
BITMAP
4000
E000
6000
7000
7000
3000
3800
3800
1800
1C00
0C00
0C00
0E00
0600
0700
0700
0300
0380
0380
0180
0180
ENDCHAR
STARTCHAR bracketright
ENCODING 93
SWIDTH 321 0
DWIDTH 7 0
BBX 6 21 0 -3
BITMAP
FC
FC
1C
1C
1C
1C
1C
1C
1C
1C
1C
1C
1C
1C
1C
1C
1C
1C
1C
FC
FC
ENDCHAR
STARTCHAR underscore
ENCODING 95
SWIDTH 561 0
DWIDTH 12 0
BBX 10 3 1 -5
BITMAP
FFC0
FFC0
FFC0
ENDCHAR
STARTCHAR grave
ENCODING 96
SWIDTH 256 0
DWIDTH 5 0
BBX 5 4 0 13
BITMAP
40
F0
78
38
ENDCHAR
STARTCHAR a
ENCODING 97
SWIDTH 597 0
DWIDTH 13 0
BBX 12 12 0 0
BITMAP
1F80
3FE0
3FE0
38F0
00F0
3FF0
7FF0
78F0
F1F0
7FF0
7FF0
3E60
ENDCHAR
STARTCHAR b
ENCODING 98
SWIDTH 647 0
DWIDTH 14 0
BBX 12 16 1 0
BITMAP
6000
F000
F000
F000
F780
FFE0
FFE0
F9F0
F0F0
F0F0
F0F0
F0F0
F9F0
FFE0
FFC0
6780
ENDCHAR
STARTCHAR c
ENCODING 99
SWIDTH 569 0
DWIDTH 12 0
BBX 10 12 1 0
BITMAP
1F00
7FC0
7FC0
F1C0
F000
F000
F000
F080
F1C0
FFC0
7FC0
1F00
ENDCHAR
STARTCHAR d
ENCODING 100
SWIDTH 647 0
DWIDTH 14 0
BBX 12 16 1 0
BITMAP
00E0
00F0
00F0
00F0
3CF0
7EF0
FFF0
F1F0
F0F0
F0F0
F0F0
F0F0
F1F0
FFF0
7FF0
3E60
ENDCHAR
STARTCHAR e
ENCODING 101
SWIDTH 606 0
DWIDTH 13 0
BBX 11 12 1 0
BITMAP
1F00
7FC0
7FC0
F1E0
FFE0
FFE0
FFE0
E000
F1C0
7FC0
7FC0
1F00
ENDCHAR
STARTCHAR f
ENCODING 102
SWIDTH 415 0
DWIDTH 9 0
BBX 9 16 0 0
BITMAP
0F00
1F80
3F00
3C00
7F00
FF00
7F00
3C00
3C00
3C00
3C00
3C00
3C00
3C00
3C00
1800
ENDCHAR
STARTCHAR g
ENCODING 103
SWIDTH 647 0
DWIDTH 14 0
BBX 12 17 1 -5
BITMAP
1E60
7FF0
FFF0
F1F0
F0F0
F0F0
F0F0
F0F0
F1F0
FFF0
7FF0
3CF0
00E0
71E0
7FE0
7FC0
3F00
ENDCHAR
STARTCHAR h
ENCODING 104
SWIDTH 633 0
DWIDTH 13 0
BBX 11 16 1 0
BITMAP
6000
F000
F000
F000
F7C0
FFE0
FFE0
F1E0
F1E0
F1E0
F1E0
F1E0
F1E0
F1E0
F0E0
60E0
ENDCHAR
STARTCHAR i
ENCODING 105
SWIDTH 279 0
DWIDTH 6 0
BBX 4 16 1 0
BITMAP
F0
F0
F0
00
60
F0
F0
F0
F0
F0
F0
F0
F0
F0
F0
60
ENDCHAR
STARTCHAR j
ENCODING 106
SWIDTH 292 0
DWIDTH 6 0
BBX 6 21 -1 -5
BITMAP
1C
3C
3C
00
18
3C
3C
3C
3C
3C
3C
3C
3C
3C
3C
3C
3C
3C
FC
F8
F0
ENDCHAR
STARTCHAR k
ENCODING 107
SWIDTH 576 0
DWIDTH 12 0
BBX 11 16 1 0
BITMAP
6000
F000
F000
F000
F180
F3C0
F3C0
F780
FF00
FF00
FF80
FF80
F3C0
F3E0
F1E0
60C0
ENDCHAR
STARTCHAR l
ENCODING 108
SWIDTH 284 0
DWIDTH 6 0
BBX 4 16 1 0
BITMAP
60
F0
F0
F0
F0
F0
F0
F0
F0
F0
F0
F0
F0
F0
F0
60
ENDCHAR
STARTCHAR m
ENCODING 109
SWIDTH 986 0
DWIDTH 21 0
BBX 19 12 1 0
BITMAP
67C780
FFFFC0
FFFFE0
F1F1E0
F1E1E0
F1E1E0
F1E1E0
F1E1E0
F1E1E0
F1E1E0
F1E1E0
60E0C0
ENDCHAR
STARTCHAR n
ENCODING 110
SWIDTH 631 0
DWIDTH 13 0
BBX 11 12 1 0
BITMAP
67C0
FFE0
FFE0
F1E0
F1E0
F1E0
F1E0
F1E0
F1E0
F1E0
F1E0
60E0
ENDCHAR
STARTCHAR o
ENCODING 111
SWIDTH 630 0
DWIDTH 13 0
BBX 12 12 1 0
BITMAP
1F00
7FC0
7FE0
F1E0
F0E0
E0F0
F0F0
F0E0
F1E0
7FE0
7FC0
1F00
ENDCHAR
STARTCHAR p
ENCODING 112
SWIDTH 647 0
DWIDTH 14 0
BBX 12 17 1 -5
BITMAP
6780
FFE0
FFE0
F9F0
F0F0
F0F0
F0F0
F0F0
F9F0
FFE0
FFC0
F780
F000
F000
F000
F000
6000
ENDCHAR
STARTCHAR q
ENCODING 113
SWIDTH 647 0
DWIDTH 14 0
BBX 12 17 1 -5
BITMAP
1E60
7FF0
FFF0
F1F0
F0F0
F0F0
F0F0
F0F0
F1F0
FFF0
7FF0
3EF0
00F0
00F0
00F0
00F0
00E0
ENDCHAR
STARTCHAR r
ENCODING 114
SWIDTH 426 0
DWIDTH 9 0
BBX 8 12 1 0
BITMAP
66
FF
FF
FC
F0
F0
F0
F0
F0
F0
F0
60
ENDCHAR
STARTCHAR s
ENCODING 115
SWIDTH 546 0
DWIDTH 11 0
BBX 10 12 1 0
BITMAP
3F00
7F80
FF80
E380
F800
FF00
3F80
07C0
E3C0
FFC0
FF80
7F00
ENDCHAR
STARTCHAR t
ENCODING 116
SWIDTH 432 0
DWIDTH 9 0
BBX 9 16 0 0
BITMAP
0800
3C00
3C00
3C00
7F00
FF00
7F00
3C00
3C00
3C00
3C00
3C00
3C00
3F00
1F80
0F00
ENDCHAR
STARTCHAR u
ENCODING 117
SWIDTH 621 0
DWIDTH 13 0
BBX 11 12 1 0
BITMAP
60C0
F1E0
F1E0
F1E0
F1E0
F1E0
F1E0
F1E0
F1E0
FFE0
7FE0
3CC0
ENDCHAR
STARTCHAR v
ENCODING 118
SWIDTH 548 0
DWIDTH 12 0
BBX 11 12 0 0
BITMAP
60E0
F0E0
F1E0
71E0
79C0
3BC0
3BC0
3F80
1F80
1F80
1F00
0E00
ENDCHAR
STARTCHAR w
ENCODING 119
SWIDTH 872 0
DWIDTH 18 0
BBX 18 12 0 0
BITMAP
60E180
F1E3C0
71F3C0
73F3C0
73F380
7BF380
3BBF80
3F3F80
3F3F00
3F3F00
1F1F00
1E0E00
ENDCHAR
STARTCHAR x
ENCODING 120
SWIDTH 504 0
DWIDTH 11 0
BBX 10 12 0 0
BITMAP
7180
79C0
7BC0
3F80
3F00
1F00
1F00
3F80
3F80
7BC0
F3C0
6180
ENDCHAR
STARTCHAR y
ENCODING 121
SWIDTH 556 0
DWIDTH 12 0
BBX 11 17 0 -5
BITMAP
60E0
F0E0
F0E0
79E0
79C0
79C0
3FC0
3F80
1F80
1F80
1F00
0F00
0F00
1E00
1E00
1C00
0C00
ENDCHAR
STARTCHAR z
ENCODING 122
SWIDTH 538 0
DWIDTH 11 0
BBX 11 12 0 0
BITMAP
7FC0
7FE0
7FC0
07C0
0780
0F00
1E00
3E00
7C00
7FC0
FFE0
7FC0
ENDCHAR
STARTCHAR braceleft
ENCODING 123
SWIDTH 388 0
DWIDTH 8 0
BBX 7 21 1 -3
BITMAP
1E
3E
38
30
30
38
38
38
38
F0
E0
F0
38
38
38
38
30
30
38
3E
1E
ENDCHAR
STARTCHAR bar
ENCODING 124
SWIDTH 276 0
DWIDTH 6 0
BBX 2 20 2 -4
BITMAP
C0
C0
C0
C0
C0
C0
C0
C0
C0
C0
C0
C0
C0
C0
C0
C0
C0
C0
C0
C0
ENDCHAR
STARTCHAR braceright
ENCODING 125
SWIDTH 388 0
DWIDTH 8 0
BBX 8 21 0 -3
BITMAP
F0
F8
1C
1C
1C
18
18
18
18
1E
0F
1E
1C
18
18
18
1C
1C
1C
F8
F0
ENDCHAR
STARTCHAR exclamdown
ENCODING 161
SWIDTH 282 0
DWIDTH 6 0
BBX 4 17 1 -5
BITMAP
70
F0
F0
70
00
00
60
60
70
F0
F0
F0
F0
F0
F0
F0
60
ENDCHAR
STARTCHAR cent
ENCODING 162
SWIDTH 590 0
DWIDTH 12 0
BBX 11 18 1 -3
BITMAP
0400
0600
0600
1F80
3FC0
7FC0
F7C0
F600
F600
F600
F600
F7C0
7FE0
7FC0
1F80
0600
0600
0400
ENDCHAR
STARTCHAR sterling
ENCODING 163
SWIDTH 639 0
DWIDTH 13 0
BBX 12 16 1 0
BITMAP
0F80
3FE0
3FE0
78E0
7840
7800
7800
FF80
FF80
FF00
3C00
3C00
3800
FFE0
FFF0
FFE0
ENDCHAR
STARTCHAR currency
ENCODING 164
SWIDTH 576 0
DWIDTH 12 0
BBX 10 10 1 2
BITMAP
C0C0
FFC0
7F80
7380
6180
6180
7380
7F80
FFC0
E0C0
ENDCHAR
STARTCHAR yen
ENCODING 165
SWIDTH 686 0
DWIDTH 14 0
BBX 13 16 1 0
BITMAP
7060
70F0
78F0
79E0
3DE0
1FC0
1F80
0F80
FFF8
FFF0
0F00
FFF8
FFF0
0F00
0F00
0700
ENDCHAR
STARTCHAR section
ENCODING 167
SWIDTH 601 0
DWIDTH 13 0
BBX 11 16 1 0
BITMAP
1F00
7F80
7FC0
F180
7800
7F80
7FE0
E3E0
E0E0
FFC0
7FC0
03C0
71C0
7FC0
7FC0
3F00
ENDCHAR
STARTCHAR dieresis
ENCODING 168
SWIDTH 481 0
DWIDTH 10 0
BBX 8 3 1 13
BITMAP
E7
E7
E7
ENDCHAR
STARTCHAR copyright
ENCODING 169
SWIDTH 858 0
DWIDTH 18 0
BBX 16 17 1 0
BITMAP
07E0
1C38
300C
63C6
47E2
CFF3
8E61
8E01
9C01
9E01
8E71
CFF3
47E2
63C6
300C
1C38
07E0
ENDCHAR
STARTCHAR guillemotleft
ENCODING 171
SWIDTH 504 0
DWIDTH 11 0
BBX 10 9 0 1
BITMAP
3980
39C0
7B80
7380
E700
7380
7380
39C0
3980
ENDCHAR
STARTCHAR registered
ENCODING 174
SWIDTH 477 0
DWIDTH 10 0
BBX 8 9 1 8
BITMAP
3C
42
BD
A5
B9
AD
A5
42
3C
ENDCHAR
STARTCHAR acute
ENCODING 180
SWIDTH 256 0
DWIDTH 5 0
BBX 4 4 1 13
BITMAP
20
F0
E0
C0
ENDCHAR
STARTCHAR cedilla
ENCODING 184
SWIDTH 279 0
DWIDTH 6 0
BBX 5 5 0 -5
BITMAP
20
70
78
58
F8
ENDCHAR
STARTCHAR guillemotright
ENCODING 187
SWIDTH 504 0
DWIDTH 11 0
BBX 9 9 1 1
BITMAP
C600
E700
E700
7380
7380
7380
E700
E700
C600
ENDCHAR
STARTCHAR questiondown
ENCODING 191
SWIDTH 604 0
DWIDTH 13 0
BBX 12 17 0 -5
BITMAP
0700
0F00
0F00
0700
0000
0700
0700
0F00
3F00
7E00
7800
F000
F0E0
F8F0
7FE0
3FE0
1F80
ENDCHAR
STARTCHAR Agrave
ENCODING 192
SWIDTH 715 0
DWIDTH 15 0
BBX 15 21 0 0
BITMAP
0400
0F00
0700
0300
0000
0380
07C0
0FE0
0FE0
1EF0
1EF0
1EF0
3C78
3C78
3FF8
7FFC
7FFC
781C
F01E
F01E
600C
ENDCHAR
STARTCHAR Aacute
ENCODING 193
SWIDTH 715 0
DWIDTH 15 0
BBX 15 21 0 0
BITMAP
0040
01E0
03C0
0380
0000
0380
07C0
0FE0
0FE0
1EF0
1EF0
1EF0
3C78
3C78
3FF8
7FFC
7FFC
781C
F01E
F01E
600C
ENDCHAR
STARTCHAR Acircumflex
ENCODING 194
SWIDTH 715 0
DWIDTH 15 0
BBX 15 21 0 0
BITMAP
0180
07E0
0FE0
0000
0000
0380
07C0
0FE0
0FE0
1EF0
1EF0
1EF0
3C78
3C78
3FF8
7FFC
7FFC
781C
F01E
F01E
600C
ENDCHAR
STARTCHAR Atilde
ENCODING 195
SWIDTH 715 0
DWIDTH 15 0
BBX 15 21 0 0
BITMAP
0E60
1FE0
1FE0
19C0
0000
0380
07C0
0FE0
0FE0
1EF0
1EF0
1EF0
3C78
3C78
3FF8
7FFC
7FFC
781C
F01E
F01E
600C
ENDCHAR
STARTCHAR Adieresis
ENCODING 196
SWIDTH 715 0
DWIDTH 15 0
BBX 15 20 0 0
BITMAP
0E70
0E70
0E70
0000
0380
07C0
0FE0
0FE0
1EF0
1EF0
1EF0
3C78
3C78
3FF8
7FFC
7FFC
781C
F01E
F01E
600C
ENDCHAR
STARTCHAR Aring
ENCODING 197
SWIDTH 715 0
DWIDTH 15 0
BBX 15 22 0 0
BITMAP
0380
0480
0480
0480
0380
0000
0380
07C0
0FE0
0FE0
1EF0
1EF0
1EF0
3C78
3C78
3FF8
7FFC
7FFC
781C
F01E
F01E
600C
ENDCHAR
STARTCHAR AE
ENCODING 198
SWIDTH 958 0
DWIDTH 20 0
BBX 20 16 0 0
BITMAP
03FFE0
07FFE0
07FFE0
0F7800
0F7800
0E7800
1E7FC0
1E7FC0
3C7FC0
3C7800
3FF800
7FF800
7FF800
F07FE0
F07FF0
607FE0
ENDCHAR
STARTCHAR Ccedilla
ENCODING 199
SWIDTH 729 0
DWIDTH 15 0
BBX 14 21 1 -5
BITMAP
0FE0
1FF0
7FF8
787C
F838
F000
F000
F000
F000
F000
F010
F83C
787C
7FF8
3FF0
0FE0
0200
0380
00C0
04C0
0780
ENDCHAR
STARTCHAR Egrave
ENCODING 200
SWIDTH 624 0
DWIDTH 13 0
BBX 12 21 1 0
BITMAP
1000
3C00
1C00
0C00
0000
7FE0
FFE0
FFE0
F000
F000
F000
FFC0
FFC0
FFC0
F000
F000
F000
F000
FFE0
FFF0
7FE0
ENDCHAR
STARTCHAR Eacute
ENCODING 201
SWIDTH 624 0
DWIDTH 13 0
BBX 12 21 1 0
BITMAP
0100
0780
0F00
0E00
0000
7FE0
FFE0
FFE0
F000
F000
F000
FFC0
FFC0
FFC0
F000
F000
F000
F000
FFE0
FFF0
7FE0
ENDCHAR
STARTCHAR Ecircumflex
ENCODING 202
SWIDTH 624 0
DWIDTH 13 0
BBX 12 21 1 0
BITMAP
0600
1F80
3F80
0000
0000
7FE0
FFE0
FFE0
F000
F000
F000
FFC0
FFC0
FFC0
F000
F000
F000
F000
FFE0
FFF0
7FE0
ENDCHAR
STARTCHAR Edieresis
ENCODING 203
SWIDTH 624 0
DWIDTH 13 0
BBX 12 20 1 0
BITMAP
39C0
39C0
39C0
0000
7FE0
FFE0
FFE0
F000
F000
F000
FFC0
FFC0
FFC0
F000
F000
F000
F000
FFE0
FFF0
7FE0
ENDCHAR
STARTCHAR Igrave
ENCODING 204
SWIDTH 298 0
DWIDTH 6 0
BBX 5 21 0 0
BITMAP
40
F0
70
30
00
30
78
78
78
78
78
78
78
78
78
78
78
78
78
78
30
ENDCHAR
STARTCHAR Iacute
ENCODING 205
SWIDTH 298 0
DWIDTH 6 0
BBX 6 21 1 0
BITMAP
08
3C
78
70
00
60
F0
F0
F0
F0
F0
F0
F0
F0
F0
F0
F0
F0
F0
F0
60
ENDCHAR
STARTCHAR Icircumflex
ENCODING 206
SWIDTH 298 0
DWIDTH 6 0
BBX 7 21 -1 0
BITMAP
18
7E
FE
00
00
18
3C
3C
3C
3C
3C
3C
3C
3C
3C
3C
3C
3C
3C
3C
18
ENDCHAR
STARTCHAR Idieresis
ENCODING 207
SWIDTH 298 0
DWIDTH 6 0
BBX 8 20 -1 0
BITMAP
E7
E7
E7
00
18
3C
3C
3C
3C
3C
3C
3C
3C
3C
3C
3C
3C
3C
3C
18
ENDCHAR
STARTCHAR Ntilde
ENCODING 209
SWIDTH 768 0
DWIDTH 16 0
BBX 14 21 1 0
BITMAP
0E60
1FE0
1FE0
19C0
0000
7018
F83C
FC3C
FC3C
FE3C
FF3C
FF3C
F7BC
F7BC
F3FC
F1FC
F1FC
F0FC
F0FC
F07C
6038
ENDCHAR
STARTCHAR Ograve
ENCODING 210
SWIDTH 797 0
DWIDTH 17 0
BBX 15 21 1 0
BITMAP
0400
0F00
0700
0300
0000
0FE0
3FF0
7FF8
787C
F83E
F01E
F01E
F01E
F01E
F01E
F01E
F83E
787C
7FF8
3FF0
0FC0
ENDCHAR
STARTCHAR Oacute
ENCODING 211
SWIDTH 797 0
DWIDTH 17 0
BBX 15 21 1 0
BITMAP
0040
01E0
03C0
0380
0000
0FE0
3FF0
7FF8
787C
F83E
F01E
F01E
F01E
F01E
F01E
F01E
F83E
787C
7FF8
3FF0
0FC0
ENDCHAR
STARTCHAR Ocircumflex
ENCODING 212
SWIDTH 797 0
DWIDTH 17 0
BBX 15 21 1 0
BITMAP
0300
0FC0
1FC0
0000
0000
0FE0
3FF0
7FF8
787C
F83E
F01E
F01E
F01E
F01E
F01E
F01E
F83E
787C
7FF8
3FF0
0FC0
ENDCHAR
STARTCHAR Otilde
ENCODING 213
SWIDTH 797 0
DWIDTH 17 0
BBX 15 21 1 0
BITMAP
0E60
1FE0
1FE0
19C0
0000
0FE0
3FF0
7FF8
787C
F83E
F01E
F01E
F01E
F01E
F01E
F01E
F83E
787C
7FF8
3FF0
0FC0
ENDCHAR
STARTCHAR Odieresis
ENCODING 214
SWIDTH 797 0
DWIDTH 17 0
BBX 15 20 1 0
BITMAP
1CE0
1CE0
1CE0
0000
0FE0
3FF0
7FF8
787C
F83E
F01E
F01E
F01E
F01E
F01E
F01E
F83E
787C
7FF8
3FF0
0FC0
ENDCHAR
STARTCHAR Ugrave
ENCODING 217
SWIDTH 721 0
DWIDTH 15 0
BBX 13 21 1 0
BITMAP
0800
1E00
0E00
0600
0000
6030
F078
F078
F078
F078
F078
F078
F078
F078
F078
F078
F078
F8F8
7FF0
3FE0
1FC0
ENDCHAR
STARTCHAR Uacute
ENCODING 218
SWIDTH 721 0
DWIDTH 15 0
BBX 13 21 1 0
BITMAP
0080
03C0
0780
0700
0000
6030
F078
F078
F078
F078
F078
F078
F078
F078
F078
F078
F078
F8F8
7FF0
3FE0
1FC0
ENDCHAR
STARTCHAR Ucircumflex
ENCODING 219
SWIDTH 721 0
DWIDTH 15 0
BBX 13 21 1 0
BITMAP
0300
0FC0
1FC0
0000
0000
6030
F078
F078
F078
F078
F078
F078
F078
F078
F078
F078
F078
F8F8
7FF0
3FE0
1FC0
ENDCHAR
STARTCHAR Udieresis
ENCODING 220
SWIDTH 721 0
DWIDTH 15 0
BBX 13 20 1 0
BITMAP
1CE0
1CE0
1CE0
0000
6030
F078
F078
F078
F078
F078
F078
F078
F078
F078
F078
F078
F8F8
7FF0
3FE0
1FC0
ENDCHAR
STARTCHAR Yacute
ENCODING 221
SWIDTH 591 0
DWIDTH 12 0
BBX 12 21 0 0
BITMAP
0080
03C0
0780
0700
0000
6070
F070
F0F0
78F0
79E0
3DC0
1FC0
1F80
0F80
0F00
0F00
0F00
0F00
0F00
0F00
0700
ENDCHAR
STARTCHAR germandbls
ENCODING 223
SWIDTH 826 0
DWIDTH 17 0
BBX 16 16 1 0
BITMAP
1FC0
3FF0
7FF0
F8F0
F0F0
F1E0
F3C0
F380
F3E0
F3FC
F1FF
F01F
F38F
F3FF
F3FE
61FC
ENDCHAR
STARTCHAR agrave
ENCODING 224
SWIDTH 597 0
DWIDTH 13 0
BBX 12 17 0 0
BITMAP
0800
1E00
0E00
0700
0000
1F80
3FE0
3FE0
38F0
00F0
3FF0
7FF0
78F0
F1F0
7FF0
7FF0
3E60
ENDCHAR
STARTCHAR aacute
ENCODING 225
SWIDTH 597 0
DWIDTH 13 0
BBX 12 17 0 0
BITMAP
0180
03C0
0780
0700
0000
1F80
3FE0
3FE0
38F0
00F0
3FF0
7FF0
78F0
F1F0
7FF0
7FF0
3E60
ENDCHAR
STARTCHAR acircumflex
ENCODING 226
SWIDTH 597 0
DWIDTH 13 0
BBX 12 17 0 0
BITMAP
0600
1FC0
1FC0
0000
0000
1F80
3FE0
3FE0
38F0
00F0
3FF0
7FF0
78F0
F1F0
7FF0
7FF0
3E60
ENDCHAR
STARTCHAR atilde
ENCODING 227
SWIDTH 597 0
DWIDTH 13 0
BBX 12 17 0 0
BITMAP
1C40
3FE0
3FC0
33C0
0000
1F80
3FE0
3FE0
38F0
00F0
3FF0
7FF0
78F0
F1F0
7FF0
7FF0
3E60
ENDCHAR
STARTCHAR adieresis
ENCODING 228
SWIDTH 597 0
DWIDTH 13 0
BBX 12 16 0 0
BITMAP
18C0
3DE0
39C0
0000
1F80
3FE0
3FE0
38F0
00F0
3FF0
7FF0
78F0
F1F0
7FF0
7FF0
3E60
ENDCHAR
STARTCHAR aring
ENCODING 229
SWIDTH 597 0
DWIDTH 13 0
BBX 12 18 0 0
BITMAP
0700
0900
0880
0900
0700
0000
1F80
3FE0
3FE0
38F0
00F0
3FF0
7FF0
78F0
F1F0
7FF0
7FF0
3E60
ENDCHAR
STARTCHAR ae
ENCODING 230
SWIDTH 916 0
DWIDTH 19 0
BBX 19 12 0 0
BITMAP
1F1F00
3FFF80
3FFFC0
31E1E0
1FFFE0
7FFFE0
FFFFE0
F0E000
F1F1C0
FFFFC0
7F3FC0
3E1F00
ENDCHAR
STARTCHAR ccedilla
ENCODING 231
SWIDTH 569 0
DWIDTH 12 0
BBX 10 17 1 -5
BITMAP
1F00
7FC0
7FC0
F1C0
F000
F000
F000
F080
F1C0
FFC0
7FC0
1F00
0800
0F00
0300
1B00
0E00
ENDCHAR
STARTCHAR egrave
ENCODING 232
SWIDTH 606 0
DWIDTH 13 0
BBX 11 17 1 0
BITMAP
1000
3C00
1C00
0E00
0000
1F00
7FC0
7FC0
F1E0
FFE0
FFE0
FFE0
E000
F1C0
7FC0
7FC0
1F00
ENDCHAR
STARTCHAR eacute
ENCODING 233
SWIDTH 606 0
DWIDTH 13 0
BBX 11 17 1 0
BITMAP
0300
0780
0F00
0E00
0000
1F00
7FC0
7FC0
F1E0
FFE0
FFE0
FFE0
E000
F1C0
7FC0
7FC0
1F00
ENDCHAR
STARTCHAR ecircumflex
ENCODING 234
SWIDTH 606 0
DWIDTH 13 0
BBX 11 17 1 0
BITMAP
0C00
3F80
3F80
0000
0000
1F00
7FC0
7FC0
F1E0
FFE0
FFE0
FFE0
E000
F1C0
7FC0
7FC0
1F00
ENDCHAR
STARTCHAR edieresis
ENCODING 235
SWIDTH 606 0
DWIDTH 13 0
BBX 11 16 1 0
BITMAP
3180
7BC0
7380
0000
1F00
7FC0
7FC0
F1E0
FFE0
FFE0
FFE0
E000
F1C0
7FC0
7FC0
1F00
ENDCHAR
STARTCHAR igrave
ENCODING 236
SWIDTH 279 0
DWIDTH 6 0
BBX 5 17 0 0
BITMAP
40
E0
70
70
00
30
78
78
78
78
78
78
78
78
78
78
30
ENDCHAR
STARTCHAR iacute
ENCODING 237
SWIDTH 279 0
DWIDTH 6 0
BBX 5 17 1 0
BITMAP
10
38
70
60
00
60
F0
F0
F0
F0
F0
F0
F0
F0
F0
F0
60
ENDCHAR
STARTCHAR icircumflex
ENCODING 238
SWIDTH 279 0
DWIDTH 6 0
BBX 7 17 -1 0
BITMAP
18
7E
FE
00
00
18
3C
3C
3C
3C
3C
3C
3C
3C
3C
3C
18
ENDCHAR
STARTCHAR idieresis
ENCODING 239
SWIDTH 279 0
DWIDTH 6 0
BBX 8 16 -1 0
BITMAP
E7
E7
E7
00
18
3C
3C
3C
3C
3C
3C
3C
3C
3C
3C
18
ENDCHAR
STARTCHAR ntilde
ENCODING 241
SWIDTH 631 0
DWIDTH 13 0
BBX 11 17 1 0
BITMAP
18C0
3FC0
7FC0
2380
0000
67C0
FFE0
FFE0
F1E0
F1E0
F1E0
F1E0
F1E0
F1E0
F1E0
F1E0
60E0
ENDCHAR
STARTCHAR ograve
ENCODING 242
SWIDTH 630 0
DWIDTH 13 0
BBX 12 17 1 0
BITMAP
1000
3C00
1E00
0E00
0000
1F00
7FC0
7FE0
F1E0
F0E0
E0F0
F0F0
F0E0
F1E0
7FE0
7FC0
1F00
ENDCHAR
STARTCHAR oacute
ENCODING 243
SWIDTH 630 0
DWIDTH 13 0
BBX 12 17 1 0
BITMAP
0100
0780
0700
0E00
0000
1F00
7FC0
7FE0
F1E0
F0E0
E0F0
F0F0
F0E0
F1E0
7FE0
7FC0
1F00
ENDCHAR
STARTCHAR ocircumflex
ENCODING 244
SWIDTH 630 0
DWIDTH 13 0
BBX 12 17 1 0
BITMAP
0600
3F80
3F80
0000
0000
1F00
7FC0
7FE0
F1E0
F0E0
E0F0
F0F0
F0E0
F1E0
7FE0
7FC0
1F00
ENDCHAR
STARTCHAR otilde
ENCODING 245
SWIDTH 630 0
DWIDTH 13 0
BBX 12 17 1 0
BITMAP
18C0
3FC0
7FC0
2380
0000
1F00
7FC0
7FE0
F1E0
F0E0
E0F0
F0F0
F0E0
F1E0
7FE0
7FC0
1F00
ENDCHAR
STARTCHAR odieresis
ENCODING 246
SWIDTH 630 0
DWIDTH 13 0
BBX 12 16 1 0
BITMAP
3180
7BC0
39C0
0000
1F00
7FC0
7FE0
F1E0
F0E0
E0F0
F0F0
F0E0
F1E0
7FE0
7FC0
1F00
ENDCHAR
STARTCHAR ugrave
ENCODING 249
SWIDTH 621 0
DWIDTH 13 0
BBX 11 17 1 0
BITMAP
1000
3C00
1C00
0E00
0000
60C0
F1E0
F1E0
F1E0
F1E0
F1E0
F1E0
F1E0
F1E0
FFE0
7FE0
3CC0
ENDCHAR
STARTCHAR uacute
ENCODING 250
SWIDTH 621 0
DWIDTH 13 0
BBX 11 17 1 0
BITMAP
0100
0780
0700
0E00
0000
60C0
F1E0
F1E0
F1E0
F1E0
F1E0
F1E0
F1E0
F1E0
FFE0
7FE0
3CC0
ENDCHAR
STARTCHAR ucircumflex
ENCODING 251
SWIDTH 621 0
DWIDTH 13 0
BBX 11 17 1 0
BITMAP
0E00
3F80
3F80
0000
0000
60C0
F1E0
F1E0
F1E0
F1E0
F1E0
F1E0
F1E0
F1E0
FFE0
7FE0
3CC0
ENDCHAR
STARTCHAR udieresis
ENCODING 252
SWIDTH 621 0
DWIDTH 13 0
BBX 11 16 1 0
BITMAP
3180
7BC0
3980
0000
60C0
F1E0
F1E0
F1E0
F1E0
F1E0
F1E0
F1E0
F1E0
FFE0
7FE0
3CC0
ENDCHAR
STARTCHAR yacute
ENCODING 253
SWIDTH 556 0
DWIDTH 12 0
BBX 11 22 0 -5
BITMAP
0100
0780
0700
0600
0000
60E0
F0E0
F0E0
79E0
79C0
79C0
3FC0
3F80
1F80
1F80
1F00
0F00
0F00
1E00
1E00
1C00
0C00
ENDCHAR
STARTCHAR ydieresis
ENCODING 255
SWIDTH 556 0
DWIDTH 12 0
BBX 11 21 0 -5
BITMAP
39C0
7BC0
39C0
0000
60E0
F0E0
F0E0
79E0
79C0
79C0
3FC0
3F80
1F80
1F80
1F00
0F00
0F00
1E00
1E00
1C00
0C00
ENDCHAR
STARTCHAR dotlessi
ENCODING 305
SWIDTH 279 0
DWIDTH 6 0
BBX 4 12 1 0
BITMAP
60
F0
F0
F0
F0
F0
F0
F0
F0
F0
F0
60
ENDCHAR
STARTCHAR OE
ENCODING 338
SWIDTH 1149 0
DWIDTH 24 0
BBX 23 16 1 0
BITMAP
0FEFFC
3FFFFC
7FFFFC
787E00
F83E00
F01E00
F01FF8
F01FF8
F01FF8
F01E00
F01E00
F83E00
787E00
7FFFFC
3FFFFE
0FEFFC
ENDCHAR
STARTCHAR oe
ENCODING 339
SWIDTH 996 0
DWIDTH 21 0
BBX 19 12 1 0
BITMAP
1F1F00
7FFFC0
7FFFE0
F1F1E0
F0FFE0
E0FFE0
F0FFE0
F0F000
F1F1C0
7FFFC0
7FFFC0
1F1F00
ENDCHAR
STARTCHAR Wcircumflex
ENCODING 372
SWIDTH 1040 0
DWIDTH 22 0
BBX 21 21 0 0
BITMAP
003000
00FC00
01FC00
000000
000000
607038
F07838
F0F838
70FC78
78FC78
78FC78
79FC70
39FE70
39CEF0
3DCEF0
3FCFF0
1FCFE0
1F87E0
1F87E0
1F87C0
0F03C0
ENDCHAR
STARTCHAR wcircumflex
ENCODING 373
SWIDTH 872 0
DWIDTH 18 0
BBX 18 17 0 0
BITMAP
00C000
03F000
03F800
000000
000000
60E180
F1E3C0
71F3C0
73F3C0
73F380
7BF380
3BBF80
3F3F80
3F3F00
3F3F00
1F1F00
1E0E00
ENDCHAR
STARTCHAR Ycircumflex
ENCODING 374
SWIDTH 591 0
DWIDTH 12 0
BBX 12 21 0 0
BITMAP
0600
1F80
3F80
0000
0000
6070
F070
F0F0
78F0
79E0
3DC0
1FC0
1F80
0F80
0F00
0F00
0F00
0F00
0F00
0F00
0700
ENDCHAR
STARTCHAR ycircumflex
ENCODING 375
SWIDTH 556 0
DWIDTH 12 0
BBX 11 22 0 -5
BITMAP
0600
1F80
3F80
0000
0000
60E0
F0E0
F0E0
79E0
79C0
79C0
3FC0
3F80
1F80
1F80
1F00
0F00
0F00
1E00
1E00
1C00
0C00
ENDCHAR
STARTCHAR Ydieresis
ENCODING 376
SWIDTH 591 0
DWIDTH 12 0
BBX 12 20 0 0
BITMAP
39C0
39C0
39C0
0000
6070
F070
F0F0
78F0
79E0
3DC0
1FC0
1F80
0F80
0F00
0F00
0F00
0F00
0F00
0F00
0700
ENDCHAR
STARTCHAR uni0237
ENCODING 567
SWIDTH 292 0
DWIDTH 6 0
BBX 6 17 -1 -5
BITMAP
18
3C
3C
3C
3C
3C
3C
3C
3C
3C
3C
3C
3C
3C
FC
F8
F0
ENDCHAR
STARTCHAR circumflex
ENCODING 710
SWIDTH 387 0
DWIDTH 8 0
BBX 7 3 1 14
BITMAP
30
FC
FE
ENDCHAR
STARTCHAR tilde
ENCODING 732
SWIDTH 465 0
DWIDTH 10 0
BBX 8 4 1 13
BITMAP
73
FF
FF
CE
ENDCHAR
STARTCHAR gravecomb
ENCODING 768
SWIDTH 0 0
DWIDTH 0 0
BBX 4 4 -5 13
BITMAP
40
F0
70
30
ENDCHAR
STARTCHAR acutecomb
ENCODING 769
SWIDTH 0 0
DWIDTH 0 0
BBX 5 4 -5 13
BITMAP
10
78
F0
E0
ENDCHAR
STARTCHAR uni0302
ENCODING 770
SWIDTH 0 0
DWIDTH 0 0
BBX 7 3 -8 14
BITMAP
18
7E
FE
ENDCHAR
STARTCHAR tildecomb
ENCODING 771
SWIDTH 0 0
DWIDTH 0 0
BBX 8 4 -9 13
BITMAP
73
FF
FF
CE
ENDCHAR
STARTCHAR uni0307
ENCODING 775
SWIDTH 0 0
DWIDTH 0 0
BBX 4 3 -5 13
BITMAP
70
F0
F0
ENDCHAR
STARTCHAR uni0308
ENCODING 776
SWIDTH 0 0
DWIDTH 0 0
BBX 8 3 -9 13
BITMAP
E7
E7
E7
ENDCHAR
STARTCHAR uni030A
ENCODING 778
SWIDTH 0 0
DWIDTH 0 0
BBX 4 5 -5 13
BITMAP
70
90
90
90
70
ENDCHAR
STARTCHAR uni0327
ENCODING 807
SWIDTH 0 0
DWIDTH 0 0
BBX 6 5 -6 -5
BITMAP
20
70
38
4C
F8
ENDCHAR
STARTCHAR Wgrave
ENCODING 7808
SWIDTH 1040 0
DWIDTH 22 0
BBX 21 21 0 0
BITMAP
004000
00F000
007000
003000
000000
607038
F07838
F0F838
70FC78
78FC78
78FC78
79FC70
39FE70
39CEF0
3DCEF0
3FCFF0
1FCFE0
1F87E0
1F87E0
1F87C0
0F03C0
ENDCHAR
STARTCHAR wgrave
ENCODING 7809
SWIDTH 872 0
DWIDTH 18 0
BBX 18 17 0 0
BITMAP
010000
038000
01C000
00C000
000000
60E180
F1E3C0
71F3C0
73F3C0
73F380
7BF380
3BBF80
3F3F80
3F3F00
3F3F00
1F1F00
1E0E00
ENDCHAR
STARTCHAR Wacute
ENCODING 7810
SWIDTH 1040 0
DWIDTH 22 0
BBX 21 21 0 0
BITMAP
000400
001E00
003C00
003800
000000
607038
F07838
F0F838
70FC78
78FC78
78FC78
79FC70
39FE70
39CEF0
3DCEF0
3FCFF0
1FCFE0
1F87E0
1F87E0
1F87C0
0F03C0
ENDCHAR
STARTCHAR wacute
ENCODING 7811
SWIDTH 872 0
DWIDTH 18 0
BBX 18 17 0 0
BITMAP
002000
007000
00E000
00E000
000000
60E180
F1E3C0
71F3C0
73F3C0
73F380
7BF380
3BBF80
3F3F80
3F3F00
3F3F00
1F1F00
1E0E00
ENDCHAR
STARTCHAR Wdieresis
ENCODING 7812
SWIDTH 1040 0
DWIDTH 22 0
BBX 21 20 0 0
BITMAP
01CE00
01CE00
01CE00
000000
607038
F07838
F0F838
70FC78
78FC78
78FC78
79FC70
39FE70
39CEF0
3DCEF0
3FCFF0
1FCFE0
1F87E0
1F87E0
1F87C0
0F03C0
ENDCHAR
STARTCHAR wdieresis
ENCODING 7813
SWIDTH 872 0
DWIDTH 18 0
BBX 18 16 0 0
BITMAP
073800
07BC00
073800
000000
60E180
F1E3C0
71F3C0
73F3C0
73F380
7BF380
3BBF80
3F3F80
3F3F00
3F3F00
1F1F00
1E0E00
ENDCHAR
STARTCHAR uni1E9E
ENCODING 7838
SWIDTH 893 0
DWIDTH 19 0
BBX 17 16 1 0
BITMAP
7FFF00
FFFF00
FFFF00
F3C000
F3C000
F3E000
F3FC00
F1FF00
F0FF80
F01F80
F00780
F38780
F7C780
F3FF80
F3FF00
70FC00
ENDCHAR
STARTCHAR Ygrave
ENCODING 7922
SWIDTH 591 0
DWIDTH 12 0
BBX 12 21 0 0
BITMAP
0800
1E00
0E00
0600
0000
6070
F070
F0F0
78F0
79E0
3DC0
1FC0
1F80
0F80
0F00
0F00
0F00
0F00
0F00
0F00
0700
ENDCHAR
STARTCHAR ygrave
ENCODING 7923
SWIDTH 556 0
DWIDTH 12 0
BBX 11 22 0 -5
BITMAP
0800
1C00
1E00
0E00
0000
60E0
F0E0
F0E0
79E0
79C0
79C0
3FC0
3F80
1F80
1F80
1F00
0F00
0F00
1E00
1E00
1C00
0C00
ENDCHAR
STARTCHAR endash
ENCODING 8211
SWIDTH 561 0
DWIDTH 12 0
BBX 10 3 1 5
BITMAP
FFC0
FFC0
FFC0
ENDCHAR
STARTCHAR emdash
ENCODING 8212
SWIDTH 960 0
DWIDTH 20 0
BBX 18 3 1 5
BITMAP
FFFFC0
FFFFC0
FFFFC0
ENDCHAR
STARTCHAR quoteleft
ENCODING 8216
SWIDTH 267 0
DWIDTH 6 0
BBX 4 8 1 8
BITMAP
30
70
E0
C0
E0
F0
F0
E0
ENDCHAR
STARTCHAR quoteright
ENCODING 8217
SWIDTH 267 0
DWIDTH 6 0
BBX 4 8 1 8
BITMAP
E0
F0
F0
F0
70
60
E0
C0
ENDCHAR
STARTCHAR quotedblleft
ENCODING 8220
SWIDTH 506 0
DWIDTH 11 0
BBX 9 8 1 8
BITMAP
3180
7380
E700
C600
E700
F780
F780
E700
ENDCHAR
STARTCHAR quotedblright
ENCODING 8221
SWIDTH 506 0
DWIDTH 11 0
BBX 9 8 1 8
BITMAP
E700
F780
F780
F780
7180
6300
E700
C600
ENDCHAR
STARTCHAR dagger
ENCODING 8224
SWIDTH 353 0
DWIDTH 7 0
BBX 6 9 1 7
BITMAP
30
30
FC
FC
30
30
30
30
30
ENDCHAR
STARTCHAR bullet
ENCODING 8226
SWIDTH 369 0
DWIDTH 8 0
BBX 6 6 1 3
BITMAP
70
F8
FC
FC
F8
70
ENDCHAR
STARTCHAR perthousand
ENCODING 8240
SWIDTH 1178 0
DWIDTH 25 0
BBX 23 16 1 0
BITMAP
781800
CC1000
CE3000
CE6000
CC6000
FCC000
798000
038000
033C3C
067E7E
0EE6EE
0CE6E6
18E6EE
38EEEE
307E7C
203C38
ENDCHAR
STARTCHAR guilsinglleft
ENCODING 8249
SWIDTH 272 0
DWIDTH 6 0
BBX 5 9 0 1
BITMAP
38
38
78
70
E0
70
70
38
38
ENDCHAR
STARTCHAR guilsinglright
ENCODING 8250
SWIDTH 272 0
DWIDTH 6 0
BBX 4 9 1 1
BITMAP
C0
E0
E0
70
70
70
E0
E0
C0
ENDCHAR
STARTCHAR Euro
ENCODING 8364
SWIDTH 730 0
DWIDTH 15 0
BBX 14 16 1 0
BITMAP
07E0
0FF8
1FF8
3C38
3C10
FF80
FF80
7800
FF80
FF80
3C10
3C38
3E3C
1FF8
0FF0
07E0
ENDCHAR
STARTCHAR trademark
ENCODING 8482
SWIDTH 639 0
DWIDTH 13 0
BBX 13 6 0 10
BITMAP
FB38
33B8
33B8
32F8
32D8
32D8
ENDCHAR
STARTCHAR uniF8FF
ENCODING 63743
SWIDTH 862 0
DWIDTH 18 0
BBX 16 16 1 0
BITMAP
07E0
0818
3004
4002
4002
9099
90A1
96C1
90A1
9091
9089
4002
2002
3004
0818
07E0
ENDCHAR
STARTCHAR .notdef
ENCODING -1
SWIDTH 862 0
DWIDTH 18 0
BBX 16 16 1 0
BITMAP
07E0
0818
3004
4002
4002
9099
90A1
96C1
90A1
9091
9089
4002
2002
3004
0818
07E0
ENDCHAR
STARTCHAR NULL
ENCODING -1
SWIDTH 0 0
DWIDTH 0 0
BBX 1 1 0 0
BITMAP
00
ENDCHAR
STARTCHAR nonmarkingreturn
ENCODING -1
SWIDTH 333 0
DWIDTH 7 0
BBX 1 1 0 0
BITMAP
00
ENDCHAR
ENDFONT
